<svg width="60" height="60" viewBox="0 0 60 60" fill="none" xmlns="http://www.w3.org/2000/svg">
<path d="M52.5093 6.52734L32.9995 21.0782L36.6074 12.4934L52.5093 6.52734Z" fill="#E2761B"/>
<path d="M7.4702 6.52734L26.8231 21.216L23.3918 12.4934L7.4702 6.52734ZM45.4898 40.2561L40.2937 48.2502L51.4114 51.3218L54.6075 40.4333L45.4898 40.2561ZM5.41138 40.4333L8.58785 51.3218L19.7055 48.2502L14.5094 40.2561L5.41138 40.4333Z" fill="#E4761B"/>
<path d="M19.078 26.7486L15.98 31.4544L27.0192 31.9467L26.627 20.0343L19.078 26.7486ZM40.9015 26.7486L33.2545 19.8965L32.9996 31.9467L44.0192 31.4544L40.9015 26.7486ZM19.7055 48.2499L26.3329 45.0011L20.6074 40.5118L19.7055 48.2499ZM33.6466 45.0011L40.2937 48.2499L39.3721 40.5118L33.6466 45.0011Z" fill="#E4761B"/>
<path d="M40.2936 48.2498L33.6465 45.001L34.1759 49.3524L34.1171 51.1836L40.2936 48.2498ZM19.7053 48.2498L25.8818 51.1836L25.8426 49.3524L26.3328 45.001L19.7053 48.2498Z" fill="#D7C1B3"/>
<path d="M25.9799 37.637L20.4504 36.0027L24.3524 34.2109L25.9799 37.637ZM33.9995 37.637L35.6269 34.2109L39.5485 36.0027L33.9995 37.637Z" fill="#233447"/>
<path d="M19.7054 48.2496L20.6465 40.2555L14.5093 40.4327L19.7054 48.2496ZM39.3524 40.2555L40.2936 48.2496L45.4897 40.4327L39.3524 40.2555ZM44.0191 31.4541L32.9995 31.9463L34.0191 37.6367L35.6465 34.2107L39.5681 36.0025L44.0191 31.4541ZM20.4505 36.0025L24.372 34.2107L25.9799 37.6367L27.0191 31.9463L15.9799 31.4541L20.4505 36.0025Z" fill="#CD6116"/>
<path d="M15.98 31.4541L20.6074 40.5114L20.4506 36.0025L15.98 31.4541ZM39.5682 36.0025L39.3721 40.5114L44.0192 31.4541L39.5682 36.0025ZM27.0192 31.9463L25.98 37.6367L27.2741 44.351L27.5682 35.5102L27.0192 31.9463ZM32.9996 31.9463L32.4702 35.4905L32.7055 44.351L34.0192 37.6367L32.9996 31.9463Z" fill="#E4751F"/>
<path d="M34.0191 37.6372L32.7053 44.3514L33.6465 45.0012L39.372 40.5119L39.5681 36.0029L34.0191 37.6372ZM20.4504 36.0029L20.6073 40.5119L26.3328 45.0012L27.274 44.3514L25.9799 37.6372L20.4504 36.0029Z" fill="#F6851B"/>
<path d="M34.1171 51.1838L34.1759 49.3526L33.6857 48.9195H26.2936L25.8426 49.3526L25.8818 51.1838L19.7053 48.25L21.8622 50.0221L26.2347 53.074H33.7445L38.1367 50.0221L40.2936 48.25L34.1171 51.1838Z" fill="#C0AD9E"/>
<path d="M33.6465 45.0013L32.7053 44.3516H27.2739L26.3327 45.0013L25.8425 49.3528L26.2935 48.9196H33.6857L34.1759 49.3528L33.6465 45.0013Z" fill="#161616"/>
<path d="M53.3328 22.0233L54.9995 13.9898L52.5093 6.52734L33.6466 20.5859L40.9015 26.7489L51.1564 29.7614L53.4309 27.1033L52.4505 26.3944L54.0191 24.9571L52.8034 24.012L54.3721 22.8109L53.3328 22.0233ZM4.99951 13.9898L6.66618 22.0233L5.60736 22.8109L7.17598 24.012L5.9799 24.9571L7.54853 26.3944L6.56814 27.1033L8.82304 29.7614L19.0779 26.7489L26.3328 20.5859L7.4701 6.52734L4.99951 13.9898Z" fill="#763D16"/>
<path d="M51.1565 29.7612L40.9016 26.7486L44.0192 31.4545L39.3722 40.5119L45.4898 40.4331H54.6075L51.1565 29.7612ZM19.078 26.7486L8.82314 29.7612L5.41138 40.4331H14.5094L20.6075 40.5119L15.98 31.4545L19.078 26.7486ZM32.9996 31.9468L33.6467 20.5857L36.6271 12.4932H23.3918L26.3329 20.5857L27.0192 31.9468L27.2545 35.5303L27.2741 44.3514H32.7055L32.7447 35.5303L32.9996 31.9468Z" fill="#F6851B"/>
</svg>
